<svg xmlns="http://www.w3.org/2000/svg">
<defs>
<font
         vert-adv-y="90"
         vert-origin-y="90"
         vert-origin-x="45"
         horiz-origin-y="0"
         horiz-origin-x="0"
         id="font1"
         horiz-adv-x="60">
        <font-face
           id="font-face72"
           font-weight="bold"
           font-family="sans-serif"
           units-per-em="100"
           descent="23.583984"
           font-style="normal"
           ascent="92.822266" />
        <missing-glyph
           id="missing-glyph74"
           d="M4.984375 -17.671875 L4.984375 70.515625 L54.984375 70.515625 L54.984375 -17.671875 L4.984375 -17.671875 ZM10.59375 -12.109375 L49.421875 -12.109375 L49.421875 64.890625 L10.59375 64.890625 L10.59375 -12.109375 Z"
           horiz-adv-x="60.0" />
        <glyph
           id="glyph76"
           d="M34.421875 43.5 Q28.609375 43.5 25.5625 39.328125 Q22.515625 35.15625 22.515625 27.296875 Q22.515625 19.4375 25.5625 15.2578125 Q28.609375 11.078125 34.421875 11.078125 Q40.140625 11.078125 43.1640625 15.2578125 Q46.1875 19.4375 46.1875 27.296875 Q46.1875 35.15625 43.1640625 39.328125 Q40.140625 43.5 34.421875 43.5 ZM34.421875 56 Q48.53125 56 56.46875 48.3828125 Q64.40625 40.765625 64.40625 27.296875 Q64.40625 13.8125 56.46875 6.1953125 Q48.53125 -1.421875 34.421875 -1.421875 Q20.265625 -1.421875 12.28125 6.1953125 Q4.296875 13.8125 4.296875 27.296875 Q4.296875 40.765625 12.28125 48.3828125 Q20.265625 56 34.421875 56 Z"
           horiz-adv-x="69.0"
           unicode="o" />
        <glyph
           id="glyph78"
           d="M8.40625 54.6875 L25.875 54.6875 L25.875 0 L8.40625 0 L8.40625 54.6875 ZM8.40625 75.984375 L25.875 75.984375 L25.875 61.71875 L8.40625 61.71875 L8.40625 75.984375 Z"
           horiz-adv-x="34.0"
           unicode="i" />
        <glyph
           id="glyph80"
           d="M59.078125 45.609375 Q62.40625 50.6875 66.96875 53.34375 Q71.53125 56 77 56 Q86.421875 56 91.359375 50.1953125 Q96.296875 44.390625 96.296875 33.296875 L96.296875 0 L78.71875 0 L78.71875 28.515625 Q78.765625 29.15625 78.7890625 29.8359375 Q78.8125 30.515625 78.8125 31.78125 Q78.8125 37.59375 77.1015625 40.2109375 Q75.390625 42.828125 71.578125 42.828125 Q66.609375 42.828125 63.8984375 38.7265625 Q61.1875 34.625 61.078125 26.859375 L61.078125 0 L43.5 0 L43.5 28.515625 Q43.5 37.59375 41.9375 40.2109375 Q40.375 42.828125 36.375 42.828125 Q31.34375 42.828125 28.609375 38.703125 Q25.875 34.578125 25.875 26.90625 L25.875 0 L8.296875 0 L8.296875 54.6875 L25.875 54.6875 L25.875 46.6875 Q29.109375 51.3125 33.28125 53.65625 Q37.453125 56 42.484375 56 Q48.140625 56 52.4921875 53.265625 Q56.84375 50.53125 59.078125 45.609375 Z"
           horiz-adv-x="104.0"
           unicode="m" />
        <glyph
           id="glyph82"
           d="M32.90625 24.609375 Q27.4375 24.609375 24.6796875 22.7578125 Q21.921875 20.90625 21.921875 17.28125 Q21.921875 13.96875 24.1484375 12.0859375 Q26.375 10.203125 30.328125 10.203125 Q35.25 10.203125 38.625 13.7421875 Q42 17.28125 42 22.609375 L42 24.609375 L32.90625 24.609375 ZM59.625 31.203125 L59.625 0 L42 0 L42 8.109375 Q38.484375 3.125 34.0859375 0.8515625 Q29.6875 -1.421875 23.390625 -1.421875 Q14.890625 -1.421875 9.59375 3.5390625 Q4.296875 8.5 4.296875 16.40625 Q4.296875 26.03125 10.9140625 30.5234375 Q17.53125 35.015625 31.6875 35.015625 L42 35.015625 L42 36.375 Q42 40.53125 38.7265625 42.4609375 Q35.453125 44.390625 28.515625 44.390625 Q22.90625 44.390625 18.0703125 43.265625 Q13.234375 42.140625 9.078125 39.890625 L9.078125 53.21875 Q14.703125 54.59375 20.3671875 55.296875 Q26.03125 56 31.6875 56 Q46.484375 56 53.0546875 50.171875 Q59.625 44.34375 59.625 31.203125 Z"
           horiz-adv-x="67.0"
           unicode="a" />
        <glyph
           id="glyph84"
           d="M62.984375 27.484375 L62.984375 22.515625 L22.125 22.515625 Q22.75 16.359375 26.5625 13.28125 Q30.375 10.203125 37.203125 10.203125 Q42.71875 10.203125 48.5078125 11.84375 Q54.296875 13.484375 60.40625 16.796875 L60.40625 3.328125 Q54.203125 0.984375 48 -0.21875 Q41.796875 -1.421875 35.59375 -1.421875 Q20.75 -1.421875 12.5234375 6.125 Q4.296875 13.671875 4.296875 27.296875 Q4.296875 40.671875 12.375 48.3359375 Q20.453125 56 34.625 56 Q47.515625 56 55.25 48.2421875 Q62.984375 40.484375 62.984375 27.484375 ZM45.015625 33.296875 Q45.015625 38.28125 42.109375 41.3359375 Q39.203125 44.390625 34.515625 44.390625 Q29.4375 44.390625 26.265625 41.53125 Q23.09375 38.671875 22.3125 33.296875 L45.015625 33.296875 Z"
           horiz-adv-x="68.0"
           unicode="e" />
        <glyph
           id="glyph86"
           d="M49.03125 39.796875 Q46.734375 40.875 44.4609375 41.3828125 Q42.1875 41.890625 39.890625 41.890625 Q33.15625 41.890625 29.515625 37.5703125 Q25.875 33.25 25.875 25.203125 L25.875 0 L8.40625 0 L8.40625 54.6875 L25.875 54.6875 L25.875 45.703125 Q29.25 51.078125 33.6171875 53.5390625 Q37.984375 56 44.09375 56 Q44.96875 56 45.9921875 55.9296875 Q47.015625 55.859375 48.96875 55.609375 L49.03125 39.796875 Z"
           horiz-adv-x="49.0"
           unicode="r" />
        <glyph
           id="glyph88"
           d="M27.484375 70.21875 L27.484375 54.6875 L45.515625 54.6875 L45.515625 42.1875 L27.484375 42.1875 L27.484375 19 Q27.484375 15.1875 29 13.84375 Q30.515625 12.5 35.015625 12.5 L44 12.5 L44 0 L29 0 Q18.65625 0 14.3359375 4.3203125 Q10.015625 8.640625 10.015625 19 L10.015625 42.1875 L1.3125 42.1875 L1.3125 54.6875 L10.015625 54.6875 L10.015625 70.21875 L27.484375 70.21875 Z"
           horiz-adv-x="48.0"
           unicode="t" />
        <glyph
           id="glyph90"
           d="M63.375 33.296875 L63.375 0 L45.796875 0 L45.796875 5.421875 L45.796875 25.484375 Q45.796875 32.5625 45.484375 35.25 Q45.171875 37.9375 44.390625 39.203125 Q43.359375 40.921875 41.6015625 41.875 Q39.84375 42.828125 37.59375 42.828125 Q32.125 42.828125 29 38.6015625 Q25.875 34.375 25.875 26.90625 L25.875 0 L8.40625 0 L8.40625 54.6875 L25.875 54.6875 L25.875 46.6875 Q29.828125 51.46875 34.2734375 53.734375 Q38.71875 56 44.09375 56 Q53.5625 56 58.46875 50.1953125 Q63.375 44.390625 63.375 33.296875 Z"
           horiz-adv-x="71.0"
           unicode="n" />
        <glyph
           id="glyph92"
           d="M9.1875 72.90625 L59.90625 72.90625 L59.90625 58.6875 L27.984375 58.6875 L27.984375 45.125 L58.015625 45.125 L58.015625 30.90625 L27.984375 30.90625 L27.984375 14.203125 L60.984375 14.203125 L60.984375 0 L9.1875 0 L9.1875 72.90625 Z"
           horiz-adv-x="68.0"
           unicode="E" />
      </font>
      <font
         vert-adv-y="90"
         vert-origin-y="90"
         vert-origin-x="45"
         horiz-origin-y="0"
         horiz-origin-x="0"
         id="font2"
         horiz-adv-x="60">
        <font-face
           id="font-face95"
           font-weight="normal"
           font-family="sans-serif"
           units-per-em="100"
           descent="23.583984"
           font-style="normal"
           ascent="92.822266" />
        <missing-glyph
           id="missing-glyph97"
           d="M4.984375 -17.671875 L4.984375 70.515625 L54.984375 70.515625 L54.984375 -17.671875 L4.984375 -17.671875 ZM10.59375 -12.109375 L49.421875 -12.109375 L49.421875 64.890625 L10.59375 64.890625 L10.59375 -12.109375 Z"
           horiz-adv-x="60.0" />
        <glyph
           id="glyph99"
           d="M30.609375 48.390625 Q23.390625 48.390625 19.1875 42.75 Q14.984375 37.109375 14.984375 27.296875 Q14.984375 17.484375 19.1640625 11.84375 Q23.34375 6.203125 30.609375 6.203125 Q37.796875 6.203125 41.9921875 11.8671875 Q46.1875 17.53125 46.1875 27.296875 Q46.1875 37.015625 41.9921875 42.703125 Q37.796875 48.390625 30.609375 48.390625 ZM30.609375 56 Q42.328125 56 49.0234375 48.3828125 Q55.71875 40.765625 55.71875 27.296875 Q55.71875 13.875 49.0234375 6.2265625 Q42.328125 -1.421875 30.609375 -1.421875 Q18.84375 -1.421875 12.1796875 6.2265625 Q5.515625 13.875 5.515625 27.296875 Q5.515625 40.765625 12.1796875 48.3828125 Q18.84375 56 30.609375 56 Z"
           horiz-adv-x="61.0"
           unicode="o" />
        <glyph
           id="glyph101"
           d="M45.40625 46.390625 L45.40625 75.984375 L54.390625 75.984375 L54.390625 0 L45.40625 0 L45.40625 8.203125 Q42.578125 3.328125 38.2578125 0.953125 Q33.9375 -1.421875 27.875 -1.421875 Q17.96875 -1.421875 11.7421875 6.4921875 Q5.515625 14.40625 5.515625 27.296875 Q5.515625 40.1875 11.7421875 48.09375 Q17.96875 56 27.875 56 Q33.9375 56 38.2578125 53.6328125 Q42.578125 51.265625 45.40625 46.390625 ZM14.796875 27.296875 Q14.796875 17.390625 18.875 11.75 Q22.953125 6.109375 30.078125 6.109375 Q37.203125 6.109375 41.3046875 11.75 Q45.40625 17.390625 45.40625 27.296875 Q45.40625 37.203125 41.3046875 42.84375 Q37.203125 48.484375 30.078125 48.484375 Q22.953125 48.484375 18.875 42.84375 Q14.796875 37.203125 14.796875 27.296875 Z"
           horiz-adv-x="63.0"
           unicode="d" />
        <glyph
           id="glyph103"
           d="M34.28125 27.484375 Q23.390625 27.484375 19.1875 25 Q14.984375 22.515625 14.984375 16.5 Q14.984375 11.71875 18.140625 8.9140625 Q21.296875 6.109375 26.703125 6.109375 Q34.1875 6.109375 38.703125 11.40625 Q43.21875 16.703125 43.21875 25.484375 L43.21875 27.484375 L34.28125 27.484375 ZM52.203125 31.203125 L52.203125 0 L43.21875 0 L43.21875 8.296875 Q40.140625 3.328125 35.546875 0.953125 Q30.953125 -1.421875 24.3125 -1.421875 Q15.921875 -1.421875 10.9609375 3.296875 Q6 8.015625 6 15.921875 Q6 25.140625 12.1796875 29.828125 Q18.359375 34.515625 30.609375 34.515625 L43.21875 34.515625 L43.21875 35.40625 Q43.21875 41.609375 39.140625 45 Q35.0625 48.390625 27.6875 48.390625 Q23 48.390625 18.5546875 47.265625 Q14.109375 46.140625 10.015625 43.890625 L10.015625 52.203125 Q14.9375 54.109375 19.578125 55.0546875 Q24.21875 56 28.609375 56 Q40.484375 56 46.34375 49.8515625 Q52.203125 43.703125 52.203125 31.203125 Z"
           horiz-adv-x="61.0"
           unicode="a" />
        <glyph
           id="glyph105"
           d="M44.28125 53.078125 L44.28125 44.578125 Q40.484375 46.53125 36.3828125 47.5078125 Q32.28125 48.484375 27.875 48.484375 Q21.1875 48.484375 17.84375 46.4375 Q14.5 44.390625 14.5 40.28125 Q14.5 37.15625 16.890625 35.375 Q19.28125 33.59375 26.515625 31.984375 L29.59375 31.296875 Q39.15625 29.25 43.1875 25.515625 Q47.21875 21.78125 47.21875 15.09375 Q47.21875 7.46875 41.1875 3.0234375 Q35.15625 -1.421875 24.609375 -1.421875 Q20.21875 -1.421875 15.453125 -0.5625 Q10.6875 0.296875 5.421875 2 L5.421875 11.28125 Q10.40625 8.6875 15.234375 7.3984375 Q20.0625 6.109375 24.8125 6.109375 Q31.15625 6.109375 34.5703125 8.28125 Q37.984375 10.453125 37.984375 14.40625 Q37.984375 18.0625 35.5234375 20.015625 Q33.0625 21.96875 24.703125 23.78125 L21.578125 24.515625 Q13.234375 26.265625 9.5234375 29.90625 Q5.8125 33.546875 5.8125 39.890625 Q5.8125 47.609375 11.28125 51.8046875 Q16.75 56 26.8125 56 Q31.78125 56 36.1796875 55.2734375 Q40.578125 54.546875 44.28125 53.078125 Z"
           horiz-adv-x="52.0"
           unicode="s" />
        <glyph
           id="glyph107"
           d="M9.421875 54.6875 L18.40625 54.6875 L18.40625 0 L9.421875 0 L9.421875 54.6875 ZM9.421875 75.984375 L18.40625 75.984375 L18.40625 64.59375 L9.421875 64.59375 L9.421875 75.984375 Z"
           horiz-adv-x="28.0"
           unicode="i" />
        <glyph
           id="glyph109"
           d="M2.984375 54.6875 L12.5 54.6875 L29.59375 8.796875 L46.6875 54.6875 L56.203125 54.6875 L35.6875 0 L23.484375 0 L2.984375 54.6875 Z"
           horiz-adv-x="59.0"
           unicode="v" />
        <glyph
           id="glyph111"
           d="M41.109375 46.296875 Q39.59375 47.171875 37.8125 47.5859375 Q36.03125 48 33.890625 48 Q26.265625 48 22.1875 43.046875 Q18.109375 38.09375 18.109375 28.8125 L18.109375 0 L9.078125 0 L9.078125 54.6875 L18.109375 54.6875 L18.109375 46.1875 Q20.953125 51.171875 25.4921875 53.5859375 Q30.03125 56 36.53125 56 Q37.453125 56 38.578125 55.8828125 Q39.703125 55.765625 41.0625 55.515625 L41.109375 46.296875 Z"
           horiz-adv-x="41.0"
           unicode="r" />
        <glyph
           id="glyph113"
           d="M56.203125 29.59375 L56.203125 25.203125 L14.890625 25.203125 Q15.484375 15.921875 20.484375 11.0625 Q25.484375 6.203125 34.421875 6.203125 Q39.59375 6.203125 44.453125 7.46875 Q49.3125 8.734375 54.109375 11.28125 L54.109375 2.78125 Q49.265625 0.734375 44.1875 -0.34375 Q39.109375 -1.421875 33.890625 -1.421875 Q20.796875 -1.421875 13.15625 6.1953125 Q5.515625 13.8125 5.515625 26.8125 Q5.515625 40.234375 12.765625 48.1171875 Q20.015625 56 32.328125 56 Q43.359375 56 49.78125 48.8984375 Q56.203125 41.796875 56.203125 29.59375 ZM47.21875 32.234375 Q47.125 39.59375 43.09375 43.9921875 Q39.0625 48.390625 32.421875 48.390625 Q24.90625 48.390625 20.390625 44.140625 Q15.875 39.890625 15.1875 32.171875 L47.21875 32.234375 Z"
           horiz-adv-x="62.0"
           unicode="e" />
        <glyph
           id="glyph115"
           d="M18.109375 8.203125 L18.109375 -20.796875 L9.078125 -20.796875 L9.078125 54.6875 L18.109375 54.6875 L18.109375 46.390625 Q20.953125 51.265625 25.2734375 53.6328125 Q29.59375 56 35.59375 56 Q45.5625 56 51.7890625 48.09375 Q58.015625 40.1875 58.015625 27.296875 Q58.015625 14.40625 51.7890625 6.4921875 Q45.5625 -1.421875 35.59375 -1.421875 Q29.59375 -1.421875 25.2734375 0.953125 Q20.953125 3.328125 18.109375 8.203125 ZM48.6875 27.296875 Q48.6875 37.203125 44.609375 42.84375 Q40.53125 48.484375 33.40625 48.484375 Q26.265625 48.484375 22.1875 42.84375 Q18.109375 37.203125 18.109375 27.296875 Q18.109375 17.390625 22.1875 11.75 Q26.265625 6.109375 33.40625 6.109375 Q40.53125 6.109375 44.609375 11.75 Q48.6875 17.390625 48.6875 27.296875 Z"
           horiz-adv-x="63.0"
           unicode="p" />
        <glyph
           id="glyph117"
           d="M8.5 21.578125 L8.5 54.6875 L17.484375 54.6875 L17.484375 21.921875 Q17.484375 14.15625 20.5078125 10.2734375 Q23.53125 6.390625 29.59375 6.390625 Q36.859375 6.390625 41.0859375 11.03125 Q45.3125 15.671875 45.3125 23.6875 L45.3125 54.6875 L54.296875 54.6875 L54.296875 0 L45.3125 0 L45.3125 8.40625 Q42.046875 3.421875 37.7265625 1 Q33.40625 -1.421875 27.6875 -1.421875 Q18.265625 -1.421875 13.3828125 4.4375 Q8.5 10.296875 8.5 21.578125 ZM31.109375 56 L31.109375 56 Z"
           horiz-adv-x="63.0"
           unicode="u" />
        <glyph
           id="glyph119"
           d="M53.515625 70.515625 L53.515625 60.890625 Q47.90625 63.578125 42.921875 64.8984375 Q37.9375 66.21875 33.296875 66.21875 Q25.25 66.21875 20.875 63.09375 Q16.5 59.96875 16.5 54.203125 Q16.5 49.359375 19.40625 46.8984375 Q22.3125 44.4375 30.421875 42.921875 L36.375 41.703125 Q47.40625 39.59375 52.65625 34.296875 Q57.90625 29 57.90625 20.125 Q57.90625 9.515625 50.8046875 4.046875 Q43.703125 -1.421875 29.984375 -1.421875 Q24.8125 -1.421875 18.9765625 -0.25 Q13.140625 0.921875 6.890625 3.21875 L6.890625 13.375 Q12.890625 10.015625 18.65625 8.3046875 Q24.421875 6.59375 29.984375 6.59375 Q38.421875 6.59375 43.015625 9.9140625 Q47.609375 13.234375 47.609375 19.390625 Q47.609375 24.75 44.3125 27.78125 Q41.015625 30.8125 33.5 32.328125 L27.484375 33.5 Q16.453125 35.6875 11.5234375 40.375 Q6.59375 45.0625 6.59375 53.421875 Q6.59375 63.09375 13.40625 68.65625 Q20.21875 74.21875 32.171875 74.21875 Q37.3125 74.21875 42.6328125 73.2890625 Q47.953125 72.359375 53.515625 70.515625 Z"
           horiz-adv-x="63.0"
           unicode="S" />
        <glyph
           id="glyph121"
           d="M52 44.1875 Q55.375 50.25 60.0625 53.125 Q64.75 56 71.09375 56 Q79.640625 56 84.28125 50.0234375 Q88.921875 44.046875 88.921875 33.015625 L88.921875 0 L79.890625 0 L79.890625 32.71875 Q79.890625 40.578125 77.1015625 44.3828125 Q74.3125 48.1875 68.609375 48.1875 Q61.625 48.1875 57.5703125 43.5546875 Q53.515625 38.921875 53.515625 30.90625 L53.515625 0 L44.484375 0 L44.484375 32.71875 Q44.484375 40.625 41.703125 44.40625 Q38.921875 48.1875 33.109375 48.1875 Q26.21875 48.1875 22.1640625 43.53125 Q18.109375 38.875 18.109375 30.90625 L18.109375 0 L9.078125 0 L9.078125 54.6875 L18.109375 54.6875 L18.109375 46.1875 Q21.1875 51.21875 25.484375 53.609375 Q29.78125 56 35.6875 56 Q41.65625 56 45.828125 52.9765625 Q50 49.953125 52 44.1875 Z"
           horiz-adv-x="97.0"
           unicode="m" />
        <glyph
           id="glyph123"
           d="M37.109375 75.984375 L37.109375 68.5 L28.515625 68.5 Q23.6875 68.5 21.8046875 66.546875 Q19.921875 64.59375 19.921875 59.515625 L19.921875 54.6875 L34.71875 54.6875 L34.71875 47.703125 L19.921875 47.703125 L19.921875 0 L10.890625 0 L10.890625 47.703125 L2.296875 47.703125 L2.296875 54.6875 L10.890625 54.6875 L10.890625 58.5 Q10.890625 67.625 15.140625 71.8046875 Q19.390625 75.984375 28.609375 75.984375 L37.109375 75.984375 Z"
           horiz-adv-x="35.0"
           unicode="f" />
        <glyph
           id="glyph125"
           d="M54.890625 33.015625 L54.890625 0 L45.90625 0 L45.90625 32.71875 Q45.90625 40.484375 42.875 44.3359375 Q39.84375 48.1875 33.796875 48.1875 Q26.515625 48.1875 22.3125 43.5546875 Q18.109375 38.921875 18.109375 30.90625 L18.109375 0 L9.078125 0 L9.078125 54.6875 L18.109375 54.6875 L18.109375 46.1875 Q21.34375 51.125 25.7109375 53.5625 Q30.078125 56 35.796875 56 Q45.21875 56 50.0546875 50.171875 Q54.890625 44.34375 54.890625 33.015625 Z"
           horiz-adv-x="63.0"
           unicode="n" />
        <glyph
           id="glyph127"
           d=""
           horiz-adv-x="32.0"
           unicode=" " />
        <glyph
           id="glyph129"
           d="M14.796875 27.296875 Q14.796875 17.390625 18.875 11.75 Q22.953125 6.109375 30.078125 6.109375 Q37.203125 6.109375 41.3046875 11.75 Q45.40625 17.390625 45.40625 27.296875 Q45.40625 37.203125 41.3046875 42.84375 Q37.203125 48.484375 30.078125 48.484375 Q22.953125 48.484375 18.875 42.84375 Q14.796875 37.203125 14.796875 27.296875 ZM45.40625 8.203125 Q42.578125 3.328125 38.2578125 0.953125 Q33.9375 -1.421875 27.875 -1.421875 Q17.96875 -1.421875 11.7421875 6.4921875 Q5.515625 14.40625 5.515625 27.296875 Q5.515625 40.1875 11.7421875 48.09375 Q17.96875 56 27.875 56 Q33.9375 56 38.2578125 53.6328125 Q42.578125 51.265625 45.40625 46.390625 L45.40625 54.6875 L54.390625 54.6875 L54.390625 -20.796875 L45.40625 -20.796875 L45.40625 8.203125 Z"
           horiz-adv-x="63.0"
           unicode="q" />
        <glyph
           id="glyph131"
           d="M19.671875 34.8125 L19.671875 8.109375 L35.5 8.109375 Q43.453125 8.109375 47.2890625 11.40625 Q51.125 14.703125 51.125 21.484375 Q51.125 28.328125 47.2890625 31.5703125 Q43.453125 34.8125 35.5 34.8125 L19.671875 34.8125 ZM19.671875 64.796875 L19.671875 42.828125 L34.28125 42.828125 Q41.5 42.828125 45.0390625 45.5390625 Q48.578125 48.25 48.578125 53.8125 Q48.578125 59.328125 45.0390625 62.0625 Q41.5 64.796875 34.28125 64.796875 L19.671875 64.796875 ZM9.8125 72.90625 L35.015625 72.90625 Q46.296875 72.90625 52.3984375 68.21875 Q58.5 63.53125 58.5 54.890625 Q58.5 48.1875 55.375 44.234375 Q52.25 40.28125 46.1875 39.3125 Q53.46875 37.75 57.5 32.7890625 Q61.53125 27.828125 61.53125 20.40625 Q61.53125 10.640625 54.890625 5.3203125 Q48.25 0 35.984375 0 L9.8125 0 L9.8125 72.90625 Z"
           horiz-adv-x="69.0"
           unicode="B" />
        <glyph
           id="glyph133"
           d="M54.890625 54.6875 L35.109375 28.078125 L55.90625 0 L45.3125 0 L29.390625 21.484375 L13.484375 0 L2.875 0 L24.125 28.609375 L4.6875 54.6875 L15.28125 54.6875 L29.78125 35.203125 L44.28125 54.6875 L54.890625 54.6875 Z"
           horiz-adv-x="59.0"
           unicode="x" />
        <glyph
           id="glyph135"
           d="M18.3125 70.21875 L18.3125 54.6875 L36.8125 54.6875 L36.8125 47.703125 L18.3125 47.703125 L18.3125 18.015625 Q18.3125 11.328125 20.140625 9.421875 Q21.96875 7.515625 27.59375 7.515625 L36.8125 7.515625 L36.8125 0 L27.59375 0 Q17.1875 0 13.234375 3.8828125 Q9.28125 7.765625 9.28125 18.015625 L9.28125 47.703125 L2.6875 47.703125 L2.6875 54.6875 L9.28125 54.6875 L9.28125 70.21875 L18.3125 70.21875 Z"
           horiz-adv-x="39.0"
           unicode="t" />
        <glyph
           id="glyph137"
           d="M54.890625 33.015625 L54.890625 0 L45.90625 0 L45.90625 32.71875 Q45.90625 40.484375 42.875 44.3359375 Q39.84375 48.1875 33.796875 48.1875 Q26.515625 48.1875 22.3125 43.5546875 Q18.109375 38.921875 18.109375 30.90625 L18.109375 0 L9.078125 0 L9.078125 75.984375 L18.109375 75.984375 L18.109375 46.1875 Q21.34375 51.125 25.7109375 53.5625 Q30.078125 56 35.796875 56 Q45.21875 56 50.0546875 50.171875 Q54.890625 44.34375 54.890625 33.015625 Z"
           horiz-adv-x="63.0"
           unicode="h" />
        <glyph
           id="glyph139"
           d="M64.40625 67.28125 L64.40625 56.890625 Q59.421875 61.53125 53.78125 63.8203125 Q48.140625 66.109375 41.796875 66.109375 Q29.296875 66.109375 22.65625 58.46875 Q16.015625 50.828125 16.015625 36.375 Q16.015625 21.96875 22.65625 14.328125 Q29.296875 6.6875 41.796875 6.6875 Q48.140625 6.6875 53.78125 8.984375 Q59.421875 11.28125 64.40625 15.921875 L64.40625 5.609375 Q59.234375 2.09375 53.4453125 0.3359375 Q47.65625 -1.421875 41.21875 -1.421875 Q24.65625 -1.421875 15.1328125 8.7109375 Q5.609375 18.84375 5.609375 36.375 Q5.609375 53.953125 15.1328125 64.0859375 Q24.65625 74.21875 41.21875 74.21875 Q47.75 74.21875 53.5390625 72.484375 Q59.328125 70.75 64.40625 67.28125 Z"
           horiz-adv-x="70.0"
           unicode="C" />
        <glyph
           id="glyph141"
           d="M48.78125 52.59375 L48.78125 44.1875 Q44.96875 46.296875 41.140625 47.34375 Q37.3125 48.390625 33.40625 48.390625 Q24.65625 48.390625 19.8203125 42.8515625 Q14.984375 37.3125 14.984375 27.296875 Q14.984375 17.28125 19.8203125 11.7421875 Q24.65625 6.203125 33.40625 6.203125 Q37.3125 6.203125 41.140625 7.25 Q44.96875 8.296875 48.78125 10.40625 L48.78125 2.09375 Q45.015625 0.34375 40.9921875 -0.5390625 Q36.96875 -1.421875 32.421875 -1.421875 Q20.0625 -1.421875 12.7890625 6.34375 Q5.515625 14.109375 5.515625 27.296875 Q5.515625 40.671875 12.8671875 48.3359375 Q20.21875 56 33.015625 56 Q37.15625 56 41.109375 55.1484375 Q45.0625 54.296875 48.78125 52.59375 Z"
           horiz-adv-x="55.0"
           unicode="c" />
        <glyph
           id="glyph143"
           d="M56.203125 29.59375 L56.203125 25.203125 L14.890625 25.203125 Q15.484375 15.921875 20.484375 11.0625 Q25.484375 6.203125 34.421875 6.203125 Q39.59375 6.203125 44.453125 7.46875 Q49.3125 8.734375 54.109375 11.28125 L54.109375 2.78125 Q49.265625 0.734375 44.1875 -0.34375 Q39.109375 -1.421875 33.890625 -1.421875 Q20.796875 -1.421875 13.15625 6.1953125 Q5.515625 13.8125 5.515625 26.8125 Q5.515625 40.234375 12.765625 48.1171875 Q20.015625 56 32.328125 56 Q43.359375 56 49.78125 48.8984375 Q56.203125 41.796875 56.203125 29.59375 ZM47.21875 32.234375 Q47.125 39.59375 43.09375 43.9921875 Q39.0625 48.390625 32.421875 48.390625 Q24.90625 48.390625 20.390625 44.140625 Q15.875 39.890625 15.1875 32.171875 L47.21875 32.234375 ZM38.78125 79.984375 L48.5 79.984375 L32.59375 61.625 L25.109375 61.625 L38.78125 79.984375 Z"
           horiz-adv-x="62.0"
           unicode="é" />
        <glyph
           id="glyph145"
           d="M45.40625 27.984375 Q45.40625 37.75 41.3828125 43.1171875 Q37.359375 48.484375 30.078125 48.484375 Q22.859375 48.484375 18.828125 43.1171875 Q14.796875 37.75 14.796875 27.984375 Q14.796875 18.265625 18.828125 12.890625 Q22.859375 7.515625 30.078125 7.515625 Q37.359375 7.515625 41.3828125 12.890625 Q45.40625 18.265625 45.40625 27.984375 ZM54.390625 6.78125 Q54.390625 -7.171875 48.1953125 -13.984375 Q42 -20.796875 29.203125 -20.796875 Q24.46875 -20.796875 20.265625 -20.09375 Q16.0625 -19.390625 12.109375 -17.921875 L12.109375 -9.1875 Q16.0625 -11.328125 19.921875 -12.3515625 Q23.78125 -13.375 27.78125 -13.375 Q36.625 -13.375 41.015625 -8.765625 Q45.40625 -4.15625 45.40625 5.171875 L45.40625 9.625 Q42.625 4.78125 38.28125 2.390625 Q33.9375 0 27.875 0 Q17.828125 0 11.671875 7.6640625 Q5.515625 15.328125 5.515625 27.984375 Q5.515625 40.671875 11.671875 48.3359375 Q17.828125 56 27.875 56 Q33.9375 56 38.28125 53.609375 Q42.625 51.21875 45.40625 46.390625 L45.40625 54.6875 L54.390625 54.6875 L54.390625 6.78125 Z"
           horiz-adv-x="63.0"
           unicode="g" />
        <glyph
           id="glyph147"
           d="M9.421875 75.984375 L18.40625 75.984375 L18.40625 0 L9.421875 0 L9.421875 75.984375 Z"
           horiz-adv-x="28.0"
           unicode="l" />
        <glyph
           id="glyph149"
           d="M34.1875 63.1875 L20.796875 26.90625 L47.609375 26.90625 L34.1875 63.1875 ZM28.609375 72.90625 L39.796875 72.90625 L67.578125 0 L57.328125 0 L50.6875 18.703125 L17.828125 18.703125 L11.1875 0 L0.78125 0 L28.609375 72.90625 Z"
           horiz-adv-x="68.0"
           unicode="A" />
        <glyph
           id="glyph151"
           d="M59.515625 10.40625 L59.515625 29.984375 L43.40625 29.984375 L43.40625 38.09375 L69.28125 38.09375 L69.28125 6.78125 Q63.578125 2.734375 56.6953125 0.65625 Q49.8125 -1.421875 42 -1.421875 Q24.90625 -1.421875 15.2578125 8.5703125 Q5.609375 18.5625 5.609375 36.375 Q5.609375 54.25 15.2578125 64.234375 Q24.90625 74.21875 42 74.21875 Q49.125 74.21875 55.546875 72.4609375 Q61.96875 70.703125 67.390625 67.28125 L67.390625 56.78125 Q61.921875 61.421875 55.765625 63.765625 Q49.609375 66.109375 42.828125 66.109375 Q29.4375 66.109375 22.7265625 58.640625 Q16.015625 51.171875 16.015625 36.375 Q16.015625 21.625 22.7265625 14.15625 Q29.4375 6.6875 42.828125 6.6875 Q48.046875 6.6875 52.1484375 7.59375 Q56.25 8.5 59.515625 10.40625 Z"
           horiz-adv-x="77.0"
           unicode="G" />
        <glyph
           id="glyph153"
           d="M30.609375 48.390625 Q23.390625 48.390625 19.1875 42.75 Q14.984375 37.109375 14.984375 27.296875 Q14.984375 17.484375 19.1640625 11.84375 Q23.34375 6.203125 30.609375 6.203125 Q37.796875 6.203125 41.9921875 11.8671875 Q46.1875 17.53125 46.1875 27.296875 Q46.1875 37.015625 41.9921875 42.703125 Q37.796875 48.390625 30.609375 48.390625 ZM30.609375 56 Q42.328125 56 49.0234375 48.3828125 Q55.71875 40.765625 55.71875 27.296875 Q55.71875 13.875 49.0234375 6.2265625 Q42.328125 -1.421875 30.609375 -1.421875 Q18.84375 -1.421875 12.1796875 6.2265625 Q5.515625 13.875 5.515625 27.296875 Q5.515625 40.765625 12.1796875 48.3828125 Q18.84375 56 30.609375 56 ZM37.78125 79.984375 L47.5 79.984375 L31.59375 61.625 L24.109375 61.625 L37.78125 79.984375 Z"
           horiz-adv-x="61.0"
           unicode="ó" />
        <glyph
           id="glyph155"
           d="M19.671875 64.796875 L19.671875 37.40625 L32.078125 37.40625 Q38.96875 37.40625 42.7265625 40.96875 Q46.484375 44.53125 46.484375 51.125 Q46.484375 57.671875 42.7265625 61.234375 Q38.96875 64.796875 32.078125 64.796875 L19.671875 64.796875 ZM9.8125 72.90625 L32.078125 72.90625 Q44.34375 72.90625 50.6171875 67.359375 Q56.890625 61.8125 56.890625 51.125 Q56.890625 40.328125 50.6171875 34.8125 Q44.34375 29.296875 32.078125 29.296875 L19.671875 29.296875 L19.671875 0 L9.8125 0 L9.8125 72.90625 Z"
           horiz-adv-x="60.0"
           unicode="P" />
        <glyph
           id="glyph157"
           d="M8.015625 75.875 L15.828125 75.875 Q23.140625 64.359375 26.78125 53.3203125 Q30.421875 42.28125 30.421875 31.390625 Q30.421875 20.453125 26.78125 9.375 Q23.140625 -1.703125 15.828125 -13.1875 L8.015625 -13.1875 Q14.5 -2 17.703125 9.0625 Q20.90625 20.125 20.90625 31.390625 Q20.90625 42.671875 17.703125 53.6640625 Q14.5 64.65625 8.015625 75.875 Z"
           horiz-adv-x="39.0"
           unicode=")" />
        <glyph
           id="glyph159"
           d="M31 75.875 Q24.46875 64.65625 21.2890625 53.6640625 Q18.109375 42.671875 18.109375 31.390625 Q18.109375 20.125 21.3125 9.0625 Q24.515625 -2 31 -13.1875 L23.1875 -13.1875 Q15.875 -1.703125 12.234375 9.375 Q8.59375 20.453125 8.59375 31.390625 Q8.59375 42.28125 12.2109375 53.3203125 Q15.828125 64.359375 23.1875 75.875 L31 75.875 Z"
           horiz-adv-x="39.0"
           unicode="(" />
        <glyph
           id="glyph161"
           d="M9.8125 72.90625 L24.515625 72.90625 L43.109375 23.296875 L61.8125 72.90625 L76.515625 72.90625 L76.515625 0 L66.890625 0 L66.890625 64.015625 L48.09375 14.015625 L38.1875 14.015625 L19.390625 64.015625 L19.390625 0 L9.8125 0 L9.8125 72.90625 Z"
           horiz-adv-x="86.0"
           unicode="M" />
        <glyph
           id="glyph163"
           d="M9.8125 72.90625 L19.671875 72.90625 L19.671875 8.296875 L55.171875 8.296875 L55.171875 0 L9.8125 0 L9.8125 72.90625 Z"
           horiz-adv-x="56.0"
           unicode="L" />
        <glyph
           id="glyph165"
           d="M4.890625 31.390625 L31.203125 31.390625 L31.203125 23.390625 L4.890625 23.390625 L4.890625 31.390625 Z"
           horiz-adv-x="36.0"
           unicode="-" />
        <glyph
           id="glyph167"
           d="M44.390625 34.1875 Q47.5625 33.109375 50.5625 29.59375 Q53.5625 26.078125 56.59375 19.921875 L66.609375 0 L56 0 L46.6875 18.703125 Q43.0625 26.03125 39.671875 28.421875 Q36.28125 30.8125 30.421875 30.8125 L19.671875 30.8125 L19.671875 0 L9.8125 0 L9.8125 72.90625 L32.078125 72.90625 Q44.578125 72.90625 50.734375 67.6796875 Q56.890625 62.453125 56.890625 51.90625 Q56.890625 45.015625 53.6875 40.4765625 Q50.484375 35.9375 44.390625 34.1875 ZM19.671875 64.796875 L19.671875 38.921875 L32.078125 38.921875 Q39.203125 38.921875 42.84375 42.21875 Q46.484375 45.515625 46.484375 51.90625 Q46.484375 58.296875 42.84375 61.546875 Q39.203125 64.796875 32.078125 64.796875 L19.671875 64.796875 Z"
           horiz-adv-x="69.0"
           unicode="R" />
        <glyph
           id="glyph169"
           d="M9.8125 72.90625 L23.09375 72.90625 L55.421875 11.921875 L55.421875 72.90625 L64.984375 72.90625 L64.984375 0 L51.703125 0 L19.390625 60.984375 L19.390625 0 L9.8125 0 L9.8125 72.90625 Z"
           horiz-adv-x="75.0"
           unicode="N" />
      </font>
</defs>
</svg>
